<svg xmlns="http://www.w3.org/2000/svg" viewBox="0 0 78 48"><path d="M3.6 3.9c2 1.1 30.7 16.7 31.7 17.2 1.1.6 2.2.8 3.8.8s2.8-.3 3.8-.8C44.1 20.6 72.7 5 74.8 3.9c.8-.4 2.1-1.1 2.3-1.9.5-1.4 0-2-2.1-2H3.3c-2 0-2.6.6-2.1 2 .3.8 1.6 1.5 2.4 1.9z"/><path d="M76.4 4.7c-1.5.8-15.3 10.6-24.4 16.5l15.4 17.3c.4.4.5.8.3 1-.2.2-.7.1-1.1-.3L48.1 23.8c-2.8 1.8-4.8 3-5.1 3.2-1.4.7-2.5.8-3.8.8s-2.4-.1-3.8-.8c-.4-.2-2.3-1.4-5.1-3.2L11.8 39.4c-.4.4-.9.5-1.1.3-.2-.2-.1-.7.3-1l15.4-17.3C17.2 15.3 3.3 5.5 1.7 4.7.1 3.9 0 4.9 0 5.6V44c0 1.8 2.6 4 4.4 4H74c1.8 0 4-2.2 4-3.9V5.7c0-.8.1-1.8-1.6-1z"/></svg>